<?xml version="1.0" standalone="no"?>
<!DOCTYPE svg PUBLIC "-//W3C//DTD SVG 20010904//EN"
 "http://www.w3.org/TR/2001/REC-SVG-20010904/DTD/svg10.dtd">
<svg version="1.0" xmlns="http://www.w3.org/2000/svg"
 width="2000.000000pt" height="2000.000000pt" viewBox="0 0 2000.000000 2000.000000"
 preserveAspectRatio="xMidYMid meet">

<g transform="translate(0.000000,2000.000000) scale(0.100000,-0.100000)"
fill="#000000" stroke="none">
<path d="M9160 15845 c0 -102 2 -185 4 -185 2 0 48 -14 102 -31 55 -17 127
-39 162 -50 34 -10 91 -28 127 -39 36 -11 94 -29 130 -40 36 -11 94 -29 130
-40 36 -11 93 -29 128 -39 34 -11 224 -69 422 -131 198 -62 388 -120 423 -131
34 -10 91 -28 127 -39 36 -11 94 -29 130 -40 36 -11 94 -29 130 -40 36 -11 93
-29 128 -39 34 -11 195 -60 357 -111 162 -51 323 -100 358 -111 34 -10 91 -28
127 -39 36 -11 93 -29 128 -39 217 -67 349 -108 552 -171 127 -40 258 -80 293
-91 34 -10 91 -28 127 -39 36 -11 94 -29 130 -40 36 -11 94 -29 130 -40 36
-11 93 -29 128 -39 34 -11 150 -47 257 -81 202 -64 254 -79 280 -80 35 0 -58
37 -695 276 -33 12 -107 40 -165 62 -58 22 -153 59 -212 81 -60 23 -155 59
-213 81 -268 102 -325 124 -395 150 -83 31 -183 69 -605 230 -55 21 -185 70
-290 110 -104 40 -236 89 -292 111 -57 21 -151 57 -210 80 -60 22 -142 54
-183 69 -71 27 -162 61 -400 152 -58 22 -139 53 -180 68 -41 15 -147 56 -235
90 -88 34 -171 65 -185 70 -14 4 -61 22 -105 40 -44 18 -91 36 -105 40 -14 5
-97 36 -185 70 -234 90 -342 130 -349 130 -3 0 -6 -83 -6 -185z"/>
<path d="M9160 15295 l0 -184 38 -11 c242 -67 693 -191 867 -240 94 -26 256
-71 360 -100 105 -29 251 -69 325 -90 74 -21 236 -66 360 -100 124 -34 302
-84 395 -110 94 -26 256 -71 360 -100 105 -29 251 -69 325 -90 74 -21 221 -61
325 -90 105 -29 267 -74 360 -100 94 -26 253 -71 355 -99 102 -28 346 -96 542
-151 326 -91 431 -116 388 -91 -8 5 -89 35 -180 66 -91 31 -228 79 -305 105
-77 27 -219 76 -315 110 -96 34 -200 70 -230 80 -30 10 -134 46 -230 80 -96
34 -186 65 -200 70 -14 4 -117 40 -230 80 -113 40 -216 76 -230 80 -14 4 -117
40 -230 80 -113 40 -216 76 -230 80 -14 5 -104 36 -200 70 -96 34 -200 70
-230 80 -30 10 -134 46 -230 80 -96 34 -186 66 -200 70 -27 9 -369 128 -515
180 -49 17 -115 40 -145 50 -30 10 -134 46 -230 80 -96 34 -200 70 -230 80
-30 10 -95 33 -145 50 -163 58 -487 170 -491 170 -2 0 -4 -83 -4 -185z"/>
<path d="M9160 14746 c0 -167 2 -185 18 -190 9 -3 154 -39 322 -80 336 -82
784 -193 1305 -321 331 -81 648 -160 1323 -326 180 -44 482 -118 672 -165 190
-47 554 -137 810 -200 256 -62 481 -118 501 -124 20 -5 45 -10 55 -10 43 1
-32 27 -426 150 -91 28 -176 55 -190 60 -14 5 -99 32 -190 60 -91 28 -190 60
-220 70 -49 16 -174 56 -480 152 -52 16 -106 33 -120 38 -14 5 -99 32 -190 60
-91 28 -190 60 -220 70 -30 10 -129 42 -220 70 -91 28 -176 55 -190 60 -14 5
-99 32 -190 60 -91 28 -190 60 -220 70 -30 10 -129 42 -220 70 -91 28 -176 55
-190 60 -14 5 -99 32 -190 60 -91 28 -176 55 -190 60 -14 5 -113 36 -220 70
-107 34 -206 65 -220 70 -14 5 -99 32 -190 60 -91 28 -176 55 -190 60 -14 5
-113 36 -220 70 -107 34 -222 71 -254 81 -33 10 -61 19 -63 19 -1 0 -3 -83 -3
-184z"/>
<path d="M9160 13646 c0 -209 -10 -185 80 -201 19 -3 206 -38 415 -76 209 -39
403 -74 430 -79 28 -5 223 -41 435 -80 212 -39 409 -75 438 -80 28 -6 76 -14
105 -20 28 -5 201 -36 382 -70 182 -34 354 -65 383 -70 28 -6 76 -14 105 -20
28 -5 201 -36 382 -70 182 -34 353 -65 380 -70 426 -77 1121 -206 1299 -241
95 -18 175 -25 163 -13 -3 3 -20 9 -39 14 -38 9 -880 222 -1198 304 -202 51
-531 135 -1220 310 -162 41 -419 106 -570 145 -151 38 -417 106 -590 150 -173
44 -439 111 -590 150 -151 38 -383 97 -515 131 -132 33 -248 63 -257 66 -17 5
-18 -8 -18 -180z"/>
<path d="M9160 13097 l0 -184 73 -12 c68 -11 103 -17 262 -41 36 -5 93 -14
128 -20 34 -5 271 -41 527 -80 417 -63 589 -90 788 -120 34 -6 91 -14 127 -20
36 -5 94 -14 130 -20 36 -5 93 -14 128 -20 34 -5 359 -55 722 -110 363 -55
688 -105 723 -110 34 -6 90 -14 125 -20 34 -5 94 -14 132 -20 39 -6 246 -38
460 -71 215 -33 433 -67 485 -75 142 -22 207 -28 195 -17 -5 5 -32 14 -60 21
-69 15 -113 25 -780 173 -761 169 -617 137 -1655 368 -498 111 -932 208 -965
216 -67 16 -346 78 -470 105 -97 21 -1021 227 -1052 235 l-23 5 0 -183z"/>
<path d="M9160 12545 c0 -152 2 -185 14 -185 8 0 67 -7 133 -15 126 -15 419
-51 698 -85 94 -11 279 -34 413 -50 568 -70 1183 -145 1760 -215 462 -57 622
-76 815 -100 111 -13 387 -47 612 -75 505 -61 493 -60 533 -67 18 -3 32 -1 32
5 0 5 -12 12 -27 15 -16 2 -89 17 -163 31 -179 36 -398 78 -600 116 -91 17
-185 35 -210 40 -25 5 -142 28 -260 50 -118 23 -258 50 -310 60 -52 10 -169
33 -260 50 -91 17 -185 35 -210 40 -25 5 -163 32 -307 60 -311 59 -729 139
-938 180 -82 16 -224 43 -315 60 -91 17 -208 40 -260 50 -52 10 -169 33 -260
50 -91 17 -185 35 -210 40 -25 5 -164 32 -310 60 -146 28 -284 55 -307 60 -23
6 -47 10 -52 10 -7 0 -11 -62 -11 -185z"/>
<path d="M13230 11434 c-144 -31 -311 -148 -373 -262 -59 -109 -57 -51 -57
-1417 0 -1366 -2 -1308 57 -1417 39 -71 147 -169 235 -212 177 -88 399 -88
577 0 100 49 199 147 243 240 l33 69 0 1320 0 1320 -33 69 c-65 138 -222 256
-387 291 -87 18 -209 18 -295 -1z m218 -89 c49 -21 81 -52 103 -100 18 -38 19
-101 19 -1490 0 -1385 -1 -1452 -19 -1490 -62 -138 -246 -152 -332 -27 l-24
36 -3 1460 c-2 982 0 1473 7 1497 13 43 74 106 115 118 48 14 93 12 134 -4z
m284 -169 l23 -51 0 -1370 0 -1370 -23 -51 c-13 -28 -46 -73 -74 -100 -28 -27
-49 -44 -46 -39 2 6 12 28 22 49 10 21 22 64 27 95 12 75 12 2758 0 2833 -5
31 -19 75 -30 99 -12 24 -21 45 -21 48 0 19 103 -102 122 -143z m-711 32 l-26
-63 -3 -1345 c-2 -906 1 -1367 8 -1413 6 -38 20 -87 31 -109 l21 -41 -31 22
c-41 29 -86 96 -105 157 -15 44 -16 179 -14 1359 l3 1310 28 53 c22 41 99 132
112 132 1 0 -9 -28 -24 -62z"/>
<path d="M9786 11408 c-3 -13 -77 -732 -166 -1598 -88 -866 -162 -1590 -165
-1607 -6 -33 -6 -33 -65 -33 l-60 0 0 -45 0 -45 180 0 180 0 0 45 0 45 -55 0
c-52 0 -55 1 -55 25 0 13 20 229 45 479 25 251 45 458 45 461 0 3 76 5 170 5
168 0 170 0 174 -22 3 -13 21 -210 41 -438 19 -228 38 -436 41 -462 l6 -48
-61 0 -61 0 0 -45 0 -45 310 0 310 0 0 45 0 45 -58 0 -57 0 -155 1628 -155
1627 -192 3 -193 2 -4 -22z m208 -110 c6 -51 296 -3109 296 -3122 0 -3 -20 -6
-45 -6 -38 0 -45 3 -49 23 -3 12 -70 717 -151 1567 -80 850 -147 1555 -149
1568 -3 20 1 22 44 22 l48 0 6 -52z m-66 -1170 c41 -464 76 -858 79 -875 l5
-33 -166 0 c-126 0 -166 3 -166 13 -2 33 165 1737 170 1737 3 0 38 -379 78
-842z"/>
<path d="M10820 11385 l0 -45 60 0 60 0 0 -50 0 -49 -57 -3 -58 -3 0 -45 c0
-38 3 -45 21 -48 12 -2 35 8 52 22 16 15 33 26 36 26 3 0 6 -679 6 -1510 l0
-1510 -60 0 -60 0 0 -45 0 -45 180 0 180 0 0 45 0 45 -60 0 -60 0 1 1118 c1
614 4 1108 6 1097 2 -11 73 -533 157 -1160 l152 -1140 155 -3 154 -2 88 782
c49 431 108 950 132 1153 l43 370 1 -1107 1 -1108 -60 0 -60 0 0 -45 0 -45
315 0 315 0 0 45 0 45 -60 0 -60 0 0 1585 0 1585 60 0 60 0 0 45 0 45 -257 -2
-257 -3 -140 -1272 c-78 -699 -143 -1274 -146 -1277 -3 -3 -77 558 -164 1247
-87 689 -160 1264 -163 1280 l-5 27 -254 0 -254 0 0 -45z m324 -72 c8 -39 436
-3110 436 -3128 0 -11 -13 -15 -50 -15 -43 0 -50 3 -55 23 -5 22 -435 3127
-435 3140 0 4 22 7 49 7 46 0 50 -2 55 -27z m996 -1558 l0 -1585 -45 0 -45 0
0 1585 0 1585 45 0 45 0 0 -1585z"/>
<path d="M5988 7266 c-92 -25 -165 -92 -188 -171 -8 -29 -10 -208 -8 -640 3
-664 -1 -625 69 -694 59 -59 104 -76 204 -76 73 0 97 4 130 22 49 26 110 88
124 126 6 16 11 96 11 178 l0 149 -90 0 -90 0 0 -195 0 -196 -26 -24 c-36 -33
-87 -33 -119 0 l-25 24 0 709 0 709 25 23 c34 32 86 32 120 0 24 -23 25 -24
27 -219 l3 -196 88 -3 87 -3 0 156 c0 135 -3 161 -20 194 -52 102 -201 161
-322 127z m238 -107 c10 -21 14 -67 14 -179 0 -142 -1 -150 -19 -150 -19 0
-20 10 -23 173 -2 94 -8 181 -13 192 -8 18 -7 19 9 6 9 -8 24 -27 32 -42z
m-336 -24 c-5 -22 -10 -318 -10 -660 0 -342 5 -638 10 -660 5 -22 7 -41 6 -43
-2 -2 -14 12 -27 30 l-24 33 -3 615 c-2 338 0 629 3 646 5 29 43 90 51 82 1
-2 -1 -21 -6 -43z m350 -1161 c0 -132 -2 -150 -22 -185 -21 -38 -48 -56 -32
-21 5 9 10 92 12 185 3 157 4 167 23 167 18 0 19 -8 19 -146z"/>
<path d="M6721 7264 c-82 -22 -136 -66 -171 -139 -19 -38 -20 -69 -20 -648 0
-488 3 -614 13 -640 51 -121 207 -185 351 -143 71 21 148 92 165 152 7 26 11
241 11 640 l0 600 -25 50 c-31 63 -92 108 -171 129 -70 18 -83 18 -153 -1z
m114 -36 c56 -25 55 -8 55 -758 l0 -692 -29 -29 c-20 -20 -39 -29 -61 -29 -22
0 -41 9 -61 29 l-29 29 0 697 c0 456 4 703 10 715 11 20 56 49 77 50 7 0 24
-5 38 -12z m122 -68 l23 -43 0 -640 c0 -685 1 -676 -50 -722 -18 -16 -18 -15
-4 33 21 70 16 1364 -4 1401 -11 19 -11 22 -1 19 7 -2 23 -24 36 -48z m-327
-4 c-14 -37 -14 -1325 0 -1362 10 -24 9 -26 -5 -14 -45 38 -45 34 -45 702 l0
633 26 38 c29 43 40 44 24 3z"/>
<path d="M8175 7274 c-90 -23 -151 -67 -186 -135 -17 -33 -19 -60 -19 -207 0
-116 4 -183 14 -215 8 -26 74 -140 147 -254 73 -115 141 -230 151 -258 14 -41
17 -86 18 -247 0 -185 -1 -199 -20 -218 -12 -12 -33 -20 -55 -20 -22 0 -43 8
-55 20 -19 19 -20 33 -20 220 l0 200 -90 0 -90 0 0 -152 c0 -133 3 -157 21
-195 86 -177 382 -177 468 0 19 39 21 61 21 223 -1 220 1 216 -165 474 -167
260 -164 252 -165 488 l0 193 26 26 c20 20 31 24 57 19 60 -12 62 -17 67 -239
l5 -202 88 -3 87 -3 0 156 c0 134 -3 161 -19 193 -25 48 -77 97 -123 116 -40
17 -131 28 -163 20z m202 -121 c9 -22 13 -79 13 -178 0 -136 -1 -145 -19 -145
-18 0 -20 10 -23 173 -2 94 -8 181 -13 192 -8 18 -7 19 10 5 10 -8 24 -29 32
-47z m-312 -190 c0 -254 -15 -208 154 -471 177 -276 165 -243 169 -469 3 -185
3 -194 -19 -233 -24 -43 -46 -55 -32 -17 4 12 8 110 8 217 -1 154 -4 204 -17
236 -9 22 -73 130 -143 238 -170 264 -168 259 -173 433 -5 165 1 222 29 257
11 14 21 26 22 26 1 0 2 -98 2 -217z m-5 -995 c0 -84 3 -164 7 -177 10 -38
-16 -16 -38 33 -15 33 -19 66 -19 169 l0 127 25 0 25 0 0 -152z"/>
<path d="M11193 7270 c-79 -16 -151 -69 -182 -133 -21 -42 -21 -56 -21 -661 0
-593 1 -618 20 -655 101 -198 432 -181 506 26 8 25 13 87 14 176 l0 137 -90 0
-90 0 0 -180 c0 -142 -3 -187 -15 -210 -29 -56 -95 -68 -139 -24 l-26 27 0
702 c0 685 0 703 20 728 41 51 116 42 144 -18 13 -26 16 -70 16 -214 l0 -182
88 3 87 3 3 133 c3 158 -6 200 -59 257 -65 71 -178 105 -276 85z m237 -150 c6
-22 9 -95 8 -162 -3 -115 -4 -123 -23 -123 -19 0 -20 8 -25 175 -3 96 -9 182
-13 190 -5 8 3 3 17 -13 14 -15 30 -45 36 -67z m-340 41 c-6 -13 -10 -246 -10
-686 0 -440 4 -673 10 -686 19 -35 -8 -20 -32 19 l-23 37 -3 605 c-2 333 0
619 3 635 6 36 41 95 55 95 7 0 8 -6 0 -19z m348 -1189 c-3 -144 -4 -150 -31
-191 -28 -42 -49 -52 -28 -13 7 13 11 87 11 186 l0 166 26 0 26 0 -4 -148z"/>
<path d="M13163 7270 c-79 -16 -151 -69 -182 -133 -21 -42 -21 -56 -21 -661 0
-593 1 -618 20 -655 101 -198 432 -181 506 26 17 49 20 1195 3 1257 -14 51
-79 119 -137 144 -58 25 -133 34 -189 22z m127 -66 l25 -24 3 -688 c2 -503 -1
-694 -9 -715 -25 -61 -97 -76 -143 -31 l-26 27 0 701 c0 628 2 704 16 724 33
48 90 50 134 6z m110 -80 c13 -56 13 -1249 -1 -1296 -5 -21 -21 -50 -35 -65
-19 -21 -24 -23 -17 -8 12 31 15 1393 3 1430 l-11 30 26 -26 c15 -14 30 -43
35 -65z m-340 40 c-15 -37 -13 -1349 1 -1376 9 -16 8 -19 -2 -16 -7 2 -24 24
-36 48 l-24 44 3 626 3 627 28 36 c33 44 40 46 27 11z"/>
<path d="M7230 7250 c0 -16 7 -20 30 -20 l30 0 -2 -752 -3 -753 -25 0 c-15 0
-26 -7 -28 -17 -3 -16 6 -18 83 -18 77 0 86 2 83 18 -2 9 -12 17 -23 17 -20 0
-20 10 -25 565 -3 311 -3 568 0 572 3 4 64 -258 135 -582 l129 -590 73 0 73 0
0 770 0 770 31 0 c24 0 30 4 27 18 -3 14 -16 17 -86 20 -77 3 -82 2 -82 -18 0
-15 7 -20 25 -20 l24 0 3 -502 c2 -277 1 -506 -2 -510 -3 -4 -57 225 -119 510
-63 284 -116 523 -119 530 -3 9 -36 12 -118 12 -107 0 -114 -1 -114 -20z m154
-37 c12 -37 317 -1439 319 -1463 2 -20 -2 -24 -18 -22 -11 2 -21 5 -21 5 -3 4
-324 1475 -324 1485 0 19 38 14 44 -5z"/>
<path d="M8640 7030 l0 -241 83 3 82 3 3 218 2 218 38 -3 37 -3 0 -750 0 -750
-25 0 c-15 0 -26 -7 -28 -17 -3 -17 9 -18 143 -18 134 0 146 1 143 18 -2 9
-12 17 -23 17 -20 0 -20 10 -23 753 l-2 752 40 0 40 0 0 -220 0 -220 80 0 80
0 0 240 0 240 -335 0 -335 0 0 -240z m90 -1 l0 -200 -22 3 c-13 2 -22 6 -20
11 1 4 2 93 2 197 0 183 1 190 20 190 19 0 20 -7 20 -201z m248 -551 c-3 -745
-3 -753 -23 -753 -20 0 -20 8 -23 753 l-2 752 25 0 25 0 -2 -752z m257 552 c0
-195 0 -195 -22 -198 l-23 -3 0 201 0 201 23 -3 c22 -3 22 -3 22 -198z"/>
<path d="M9440 7250 c0 -15 7 -20 25 -20 l25 0 0 -749 0 -750 -22 -3 c-13 -2
-24 -11 -26 -20 -3 -17 9 -18 143 -18 134 0 146 1 143 18 -2 9 -13 18 -26 20
l-22 3 0 375 c0 206 0 377 0 382 0 4 24 8 53 10 41 2 59 -2 78 -17 l24 -19 5
-339 c5 -308 7 -341 24 -369 29 -49 64 -64 145 -64 57 0 71 3 71 15 0 9 -11
20 -24 24 -13 5 -26 17 -30 26 -3 9 -6 150 -6 314 0 288 -1 298 -22 341 -15
30 -39 55 -70 75 -26 17 -47 33 -47 36 -1 3 18 18 42 33 23 15 53 43 67 63 24
36 25 41 28 254 4 249 0 265 -80 333 -65 56 -114 66 -320 66 -171 0 -178 -1
-178 -20z m140 -769 c0 -633 -2 -750 -14 -754 -8 -3 -17 -3 -20 0 -3 4 -6 343
-6 755 0 741 0 748 20 748 20 0 20 -7 20 -749z m231 720 l29 -29 0 -287 0
-287 -29 -29 c-25 -24 -37 -29 -80 -29 l-51 0 0 345 0 345 51 0 c43 0 55 -5
80 -29z m106 -58 c9 -24 13 -92 13 -258 0 -234 -6 -272 -44 -304 -16 -13 -17
-12 -9 15 11 40 10 553 -1 584 -8 23 -8 24 9 10 10 -8 24 -29 32 -47z m-12
-706 l25 -44 0 -302 c0 -241 3 -309 14 -336 18 -41 9 -45 -25 -9 l-24 26 -6
331 c-3 183 -9 342 -13 355 -13 36 1 25 29 -21z"/>
<path d="M10190 7250 c0 -15 7 -20 25 -20 l25 0 0 -655 c0 -443 4 -671 11
-706 13 -61 69 -128 134 -161 96 -50 241 -30 321 44 79 72 74 23 74 792 l0
686 30 0 c23 0 30 4 30 20 0 19 -7 20 -145 20 -138 0 -145 -1 -145 -20 0 -15
7 -20 25 -20 l25 0 0 -729 0 -728 -26 -27 c-35 -35 -86 -35 -119 -1 l-25 24 0
731 0 730 25 0 c18 0 25 5 25 20 0 19 -7 20 -145 20 -138 0 -145 -1 -145 -20z
m143 -727 c1 -390 7 -719 12 -733 7 -22 7 -23 -7 -12 -9 7 -23 28 -32 46 -14
30 -16 113 -16 720 0 676 0 686 20 686 19 0 19 -12 23 -707z m357 6 l0 -701
-22 -39 c-21 -38 -49 -57 -32 -21 5 9 10 342 12 740 2 712 3 722 22 722 20 0
20 -9 20 -701z"/>
<path d="M11690 7030 l0 -241 83 3 82 3 3 218 2 217 40 0 40 0 -2 -752 -3
-753 -25 0 c-15 0 -26 -7 -28 -17 -3 -17 9 -18 142 -18 139 0 146 1 146 20 0
15 -7 20 -25 20 l-25 0 0 750 0 750 40 0 40 0 0 -220 0 -220 80 0 80 0 0 240
0 240 -335 0 -335 0 0 -240z m90 -1 l0 -200 -22 3 c-13 2 -22 6 -20 11 1 4 2
93 2 197 0 183 1 190 20 190 19 0 20 -7 20 -201z m250 -548 c0 -733 0 -749
-19 -754 -11 -3 -22 -2 -25 1 -3 3 -6 342 -6 754 l0 748 25 0 25 0 0 -749z
m258 552 c-3 -190 -4 -198 -23 -198 -19 0 -20 8 -23 198 l-2 197 25 0 25 0 -2
-197z"/>
<path d="M12497 7264 c-17 -17 -5 -34 23 -34 l30 0 0 -749 0 -750 -27 -3 c-17
-2 -29 -10 -31 -20 -3 -17 9 -18 148 -18 139 0 151 1 148 18 -2 10 -13 17 -28
17 l-25 0 -3 753 -2 752 31 0 c24 0 30 4 27 18 -3 15 -19 17 -144 20 -77 1
-143 -1 -147 -4z m143 -782 c0 -412 -3 -751 -6 -755 -3 -3 -12 -3 -20 0 -12 4
-14 121 -14 754 0 742 0 749 20 749 20 0 20 -7 20 -748z"/>
<path d="M13657 7263 c-17 -16 -5 -33 23 -33 l30 0 -2 -752 -3 -753 -25 0
c-15 0 -26 -7 -28 -17 -3 -16 6 -18 83 -18 77 0 86 2 83 18 -2 9 -13 18 -26
20 l-22 3 1 577 0 577 79 -355 c43 -195 103 -464 132 -597 l53 -243 72 0 73 0
0 770 0 770 30 0 c23 0 30 4 30 20 0 18 -7 20 -85 20 -77 0 -85 -2 -85 -19 0
-14 8 -21 28 -23 l27 -3 3 -510 c1 -293 -2 -505 -7 -500 -4 6 -59 237 -120
515 -62 278 -114 513 -117 523 -5 15 -19 17 -113 17 -59 0 -111 -3 -114 -7z
m309 -778 c90 -407 162 -745 159 -752 -2 -6 -12 -10 -22 -9 -15 2 -30 59 -100
377 -169 767 -243 1111 -243 1120 0 6 10 9 22 7 20 -3 32 -52 184 -743z"/>
</g>
</svg>
